<svg width="64" height="64" viewBox="0 0 64 64" fill="none" xmlns="http://www.w3.org/2000/svg">
<circle cx="32" cy="32" r="32" fill="#DCFCE7"/>
<rect width="64" height="64" rx="6" fill="#F8BB54"/>
<g clip-path="url(#clip0_64_529)">
<path d="M39.1875 13.5625C39.8671 13.5625 40.5189 13.8325 40.9995 14.313C41.48 14.7936 41.75 15.4454 41.75 16.125V46.875C41.75 47.5546 41.48 48.2064 40.9995 48.687C40.5189 49.1675 39.8671 49.4375 39.1875 49.4375H23.8125C23.1329 49.4375 22.4811 49.1675 22.0005 48.687C21.52 48.2064 21.25 47.5546 21.25 46.875V16.125C21.25 15.4454 21.52 14.7936 22.0005 14.313C22.4811 13.8325 23.1329 13.5625 23.8125 13.5625H39.1875ZM23.8125 11C22.4533 11 21.1497 11.54 20.1886 12.5011C19.2275 13.4622 18.6875 14.7658 18.6875 16.125V46.875C18.6875 48.2342 19.2275 49.5378 20.1886 50.4989C21.1497 51.46 22.4533 52 23.8125 52H39.1875C40.5467 52 41.8503 51.46 42.8114 50.4989C43.7725 49.5378 44.3125 48.2342 44.3125 46.875V16.125C44.3125 14.7658 43.7725 13.4622 42.8114 12.5011C41.8503 11.54 40.5467 11 39.1875 11H23.8125Z" fill="white"/>
<path d="M31.5 46.875C32.1796 46.875 32.8314 46.605 33.312 46.1245C33.7925 45.6439 34.0625 44.9921 34.0625 44.3125C34.0625 43.6329 33.7925 42.9811 33.312 42.5005C32.8314 42.02 32.1796 41.75 31.5 41.75C30.8204 41.75 30.1686 42.02 29.688 42.5005C29.2075 42.9811 28.9375 43.6329 28.9375 44.3125C28.9375 44.9921 29.2075 45.6439 29.688 46.1245C30.1686 46.605 30.8204 46.875 31.5 46.875Z" fill="white"/>
</g>
<defs>
<clipPath id="clip0_64_529">
<rect width="41" height="41" fill="white" transform="translate(11 11)"/>
</clipPath>
</defs>
</svg>
