<svg xmlns="http://www.w3.org/2000/svg" width="64" height="64" fill="none" viewBox="0 0 64 64"><rect width="64" height="64" fill="#F8BB54" rx="6"/><path fill-rule="evenodd" stroke="#fff" stroke-linecap="round" stroke-linejoin="round" stroke-width="2" d="M54.619 45.8095V19.2381C54.619 17.672 53.9968 16.1701 52.8895 15.0628C51.7821 13.9554 50.2802 13.3333 48.7142 13.3333H13.2856C11.7196 13.3333 10.2177 13.9554 9.11032 15.0628C8.00297 16.1701 7.38086 17.672 7.38086 19.2381V45.8095C7.38086 47.3755 8.00297 48.8774 9.11032 49.9848C10.2177 51.0922 11.7196 51.7143 13.2856 51.7143H48.7142C50.2802 51.7143 51.7821 51.0922 52.8895 49.9848C53.9968 48.8774 54.619 47.3755 54.619 45.8095Z" clip-rule="evenodd"/><path stroke="#fff" stroke-linecap="round" stroke-linejoin="round" stroke-width="2" d="M25.0952 22.1846H48.7142M13.2856 22.1905H19.1904M48.7142 42.8571V34C48.7142 33.217 48.4032 32.466 47.8495 31.9124C47.2958 31.3587 46.5449 31.0476 45.7618 31.0476H16.238C15.455 31.0476 14.7041 31.3587 14.1504 31.9124C13.5967 32.466 13.2856 33.217 13.2856 34V42.8571C13.2856 43.6402 13.5967 44.3911 14.1504 44.9448C14.7041 45.4985 15.455 45.8095 16.238 45.8095H45.7618C46.5449 45.8095 47.2958 45.4985 47.8495 44.9448C48.4032 44.3911 48.7142 43.6402 48.7142 42.8571Z"/></svg>